<svg xmlns="http://www.w3.org/2000/svg" viewBox="0 0 20 20" fill="none" aria-hidden="true">
  <g stroke="currentColor" stroke-width="2" stroke-linecap="round" stroke-linejoin="round">
    <polyline points="10.5 15 7 5 6 5 2.5 15" />
    <line x1="9.586" x2="3.414" y1="12.5" y2="12.5" />
    <polyline points="13.5 9 15.5 9 15.5 15" />
    <line x1="13.5" x2="17.5" y1="15" y2="15" />
  </g>
  <path fill="currentColor" stroke="none" d="m17.6527,3.9647-1.2005-.4503-.4506-1.2005c-.1562-.4185-.8468-.4185-1.0031,0l-.4506,1.2005-1.2005.4503c-.2086.0785-.3474.2783-.3474.5015s.1388.4231.3474.5015l1.2005.4503.4506,1.2005c.0781.2093.2783.3477.5015.3477s.4234-.1385.5015-.3477l.4506-1.2005,1.2005-.4503c.2086-.0785.3474-.2783.3474-.5015s-.1388-.4231-.3474-.5015Z" />
</svg>
