<svg xmlns="http://www.w3.org/2000/svg" id="canvas" viewBox="575.995 412.047 503.543 261.057"><path d="M 609.95,417.21 C 609.84 419.89, 610.92 423.28, 612.07 430.21 C 613.22 437.14, 614.08 441.75, 615.71 451.85 C 617.34 461.96, 618.29 468.31, 620.23 480.73 C 622.17 493.14, 623.15 500.82, 625.41 513.92 C 627.66 527.01, 629.12 533.71, 631.50 546.20 C 633.87 558.68, 635.09 565.51, 637.27 576.33 C 639.44 587.14, 640.47 592.25, 642.36 600.26 C 644.25 608.26, 645.12 611.64, 646.71 616.35 C 648.30 621.06, 649.18 622.14, 650.32 623.80 C 651.47 625.46, 651.92 624.58, 652.44 624.66 C 652.95 624.74, 652.88 624.60, 652.90 624.19 C 652.93 623.78, 653.26 624.35, 652.56 622.59 C 651.86 620.84, 651.04 619.98, 649.41 615.41 C 647.77 610.85, 646.46 607.64, 644.36 599.76 C 642.26 591.87, 641.18 586.76, 638.91 575.99 C 636.64 565.22, 635.40 558.37, 633.01 545.91 C 630.62 533.44, 629.16 526.74, 626.95 513.65 C 624.75 500.56, 623.82 492.88, 621.99 480.46 C 620.15 468.04, 619.29 461.66, 617.78 451.53 C 616.27 441.41, 615.47 436.78, 614.44 429.84 C 613.41 422.89, 613.54 419.33, 612.64 416.80 C 611.74 414.28, 610.07 414.53, 609.95 417.21" style="stroke: black; fill: black;"/><path d="M 658.08,424.07 C 658.63 425.74, 660.38 426.93, 662.88 430.77 C 665.38 434.61, 667.05 436.93, 670.59 443.27 C 674.13 449.61, 676.28 454.03, 680.58 462.49 C 684.88 470.95, 687.49 476.05, 692.10 485.56 C 696.72 495.07, 699.12 500.57, 703.65 510.04 C 708.17 519.51, 710.54 524.40, 714.72 532.90 C 718.90 541.40, 721.29 545.27, 724.56 552.54 C 727.83 559.81, 729.27 563.36, 731.08 569.23 C 732.90 575.11, 733.41 578.04, 733.64 581.94 C 733.86 585.84, 733.74 586.84, 732.22 588.75 C 730.70 590.66, 730.05 590.98, 726.03 591.49 C 722.00 592.01, 719.17 591.84, 712.10 591.33 C 705.04 590.83, 700.35 590.26, 690.71 588.97 C 681.07 587.68, 674.98 586.75, 663.90 584.89 C 652.81 583.03, 646.02 581.58, 635.29 579.67 C 624.57 577.76, 619.07 577.18, 610.27 575.34 C 601.48 573.50, 596.90 572.22, 591.32 570.47 C 585.74 568.72, 583.97 567.96, 582.38 566.57 C 580.78 565.17, 580.74 565.44, 583.35 563.51 C 585.97 561.57, 588.96 560.04, 595.46 556.88 C 601.97 553.72, 606.61 551.34, 615.88 547.69 C 625.15 544.05, 631.09 542.12, 641.81 538.67 C 652.52 535.22, 658.93 533.53, 669.46 530.46 C 680.00 527.39, 685.44 525.88, 694.47 523.32 C 703.50 520.76, 707.59 519.48, 714.62 517.67 C 721.65 515.85, 724.69 515.08, 729.62 514.25 C 734.54 513.43, 735.93 512.83, 739.24 513.55 C 742.55 514.27, 743.19 515.28, 746.17 517.86 C 749.14 520.43, 750.93 522.98, 754.11 526.42 C 757.30 529.86, 758.74 531.68, 762.10 535.05 C 765.46 538.41, 767.17 540.40, 770.91 543.23 C 774.66 546.06, 776.97 547.43, 780.82 549.19 C 784.66 550.94, 786.59 551.70, 790.12 552.02 C 793.66 552.33, 795.43 551.69, 798.49 550.75 C 801.55 549.81, 803.14 548.59, 805.43 547.32 C 807.73 546.05, 808.04 544.86, 809.96 544.40 C 811.88 543.94, 812.34 543.98, 815.04 545.03 C 817.73 546.08, 819.60 546.96, 823.43 549.65 C 827.27 552.34, 829.39 554.69, 834.21 558.47 C 839.02 562.25, 841.92 564.84, 847.53 568.55 C 853.14 572.25, 856.12 574.13, 862.24 577.01 C 868.37 579.88, 871.64 581.24, 878.16 582.92 C 884.68 584.60, 888.41 585.45, 894.85 585.39 C 901.28 585.33, 904.73 584.88, 910.33 582.61 C 915.94 580.35, 918.74 578.40, 922.88 574.05 C 927.02 569.70, 928.87 566.65, 931.04 560.85 C 933.22 555.05, 933.95 551.31, 933.77 545.03 C 933.59 538.75, 932.84 535.01, 930.14 529.45 C 927.44 523.89, 925.12 521.00, 920.26 517.21 C 915.40 513.42, 911.88 511.89, 905.86 510.50 C 899.85 509.11, 895.70 509.40, 890.19 510.24 C 884.69 511.09, 881.87 511.96, 878.33 514.72 C 874.80 517.49, 872.72 520.32, 872.53 524.09 C 872.33 527.86, 874.26 530.08, 877.35 533.56 C 880.45 537.03, 883.66 538.56, 888.01 541.47 C 892.35 544.38, 894.59 545.29, 899.07 548.11 C 903.56 550.93, 906.05 552.17, 910.41 555.58 C 914.78 558.99, 916.94 560.93, 920.90 565.16 C 924.85 569.40, 926.69 571.73, 930.17 576.76 C 933.65 581.79, 934.82 584.35, 938.31 590.30 C 941.80 596.25, 944.10 599.94, 947.62 606.51 C 951.15 613.07, 953.56 616.82, 955.95 623.11 C 958.34 629.41, 959.17 632.45, 959.56 637.97 C 959.95 643.49, 959.99 646.32, 957.92 650.71 C 955.85 655.11, 954.15 657.01, 949.21 659.94 C 944.27 662.88, 940.28 663.88, 933.22 665.40 C 926.15 666.92, 921.84 667.46, 913.89 667.55 C 905.93 667.64, 901.26 667.42, 893.45 665.84 C 885.64 664.25, 880.82 662.66, 874.83 659.64 C 868.84 656.62, 866.63 654.90, 863.49 650.73 C 860.35 646.55, 859.41 643.69, 859.13 638.77 C 858.85 633.85, 859.48 631.66, 862.10 626.13 C 864.72 620.60, 866.90 617.17, 872.23 611.12 C 877.56 605.07, 881.10 601.75, 888.74 595.89 C 896.39 590.03, 901.20 587.70, 910.45 581.82 C 919.69 575.93, 925.40 572.19, 934.98 566.45 C 944.55 560.71, 949.65 558.15, 958.34 553.11 C 967.04 548.07, 971.45 545.36, 978.45 541.25 C 985.44 537.13, 989.10 535.02, 993.34 532.54 C 997.57 530.07, 998.73 529.22, 999.61 528.86 C 1000.50 528.50, 998.78 528.73, 997.77 530.75 C 996.76 532.77, 995.23 534.96, 994.56 538.96 C 993.90 542.97, 993.05 546.22, 994.44 550.76 C 995.83 555.31, 997.42 558.15, 1001.52 561.69 C 1005.62 565.24, 1009.18 566.56, 1014.96 568.48 C 1020.74 570.41, 1024.17 570.94, 1030.42 571.32 C 1036.67 571.69, 1040.17 571.46, 1046.20 570.36 C 1052.24 569.25, 1055.64 568.25, 1060.60 565.78 C 1065.56 563.32, 1067.88 561.65, 1071.01 558.01 C 1074.14 554.38, 1075.71 551.94, 1076.26 547.61 C 1076.81 543.28, 1076.81 540.99, 1073.74 536.37 C 1070.68 531.75, 1067.62 528.96, 1060.93 524.52 C 1054.23 520.07, 1048.88 517.76, 1040.28 514.12 C 1031.68 510.49, 1025.64 508.93, 1017.91 506.35 C 1010.17 503.77, 1005.00 501.83, 1001.60 501.22 C 998.21 500.61, 997.82 501.85, 1000.93 503.31 C 1004.05 504.78, 1009.50 505.90, 1017.17 508.54 C 1024.83 511.17, 1030.83 512.83, 1039.27 516.48 C 1047.72 520.13, 1053.02 522.48, 1059.39 526.80 C 1065.75 531.13, 1068.42 534.06, 1071.08 538.12 C 1073.75 542.18, 1073.27 543.61, 1072.70 547.10 C 1072.13 550.60, 1070.96 552.48, 1068.23 555.61 C 1065.51 558.74, 1063.59 560.43, 1059.07 562.74 C 1054.54 565.06, 1051.30 566.12, 1045.61 567.18 C 1039.93 568.25, 1036.54 568.46, 1030.63 568.07 C 1024.72 567.68, 1021.38 567.07, 1016.07 565.23 C 1010.75 563.38, 1007.47 561.97, 1004.06 558.83 C 1000.66 555.70, 999.86 553.35, 999.04 549.55 C 998.23 545.75, 999.45 543.43, 1000.00 539.83 C 1000.55 536.23, 1001.86 534.14, 1001.78 531.56 C 1001.69 528.97, 1001.56 527.20, 999.58 526.88 C 997.60 526.57, 996.33 527.48, 991.87 529.98 C 987.41 532.47, 984.19 535.04, 977.29 539.34 C 970.39 543.64, 966.03 546.36, 957.38 551.47 C 948.73 556.58, 943.63 559.14, 934.04 564.89 C 924.45 570.64, 918.75 574.36, 909.44 580.22 C 900.12 586.08, 895.27 588.35, 887.47 594.20 C 879.66 600.05, 875.97 603.33, 870.39 609.48 C 864.82 615.62, 862.41 619.04, 859.59 624.93 C 856.76 630.82, 855.92 633.44, 856.25 638.94 C 856.59 644.43, 857.77 647.80, 861.25 652.41 C 864.73 657.02, 867.32 658.80, 873.66 661.97 C 880.00 665.15, 884.90 666.67, 892.95 668.29 C 901.00 669.91, 905.74 670.14, 913.91 670.10 C 922.08 670.05, 926.43 669.61, 933.78 668.08 C 941.14 666.55, 945.34 665.66, 950.70 662.44 C 956.06 659.22, 958.23 656.91, 960.58 651.97 C 962.93 647.04, 962.85 643.74, 962.45 637.77 C 962.05 631.80, 961.06 628.63, 958.58 622.11 C 956.10 615.60, 953.63 611.84, 950.06 605.20 C 946.49 598.55, 944.21 594.91, 940.73 588.89 C 937.24 582.86, 936.12 580.26, 932.63 575.08 C 929.14 569.90, 927.29 567.40, 923.27 562.98 C 919.25 558.55, 916.95 556.53, 912.51 552.94 C 908.07 549.34, 905.53 547.97, 901.08 545.01 C 896.63 542.05, 894.40 541.01, 890.27 538.15 C 886.13 535.29, 883.14 533.50, 880.40 530.72 C 877.65 527.94, 876.47 526.83, 876.53 524.25 C 876.58 521.66, 877.83 519.89, 880.67 517.78 C 883.51 515.67, 885.85 514.53, 890.75 513.70 C 895.65 512.87, 899.64 512.45, 905.16 513.63 C 910.69 514.82, 913.94 516.19, 918.39 519.62 C 922.83 523.05, 924.93 525.68, 927.39 530.78 C 929.85 535.88, 930.53 539.31, 930.68 545.11 C 930.83 550.91, 930.16 554.40, 928.16 559.77 C 926.16 565.14, 924.47 567.95, 920.68 571.96 C 916.89 575.98, 914.38 577.75, 909.21 579.85 C 904.04 581.95, 900.89 582.41, 894.82 582.48 C 888.75 582.54, 885.14 581.78, 878.87 580.16 C 872.60 578.55, 869.40 577.24, 863.48 574.40 C 857.56 571.56, 854.68 569.70, 849.29 565.95 C 843.89 562.20, 841.15 559.61, 836.50 555.66 C 831.85 551.70, 829.93 549.27, 826.03 546.17 C 822.13 543.08, 820.40 541.58, 817.01 540.17 C 813.62 538.75, 811.98 538.77, 809.09 539.10 C 806.19 539.43, 805.05 540.58, 802.55 541.84 C 800.04 543.10, 798.98 544.37, 796.56 545.40 C 794.14 546.44, 793.21 547.10, 790.43 547.02 C 787.65 546.93, 786.06 546.42, 782.66 544.99 C 779.26 543.56, 776.94 542.44, 773.43 539.86 C 769.91 537.28, 768.32 535.36, 765.07 532.09 C 761.83 528.82, 760.50 526.98, 757.22 523.51 C 753.94 520.05, 752.15 517.44, 748.68 514.77 C 745.21 512.10, 743.80 510.84, 739.88 510.18 C 735.96 509.52, 734.27 510.40, 729.10 511.46 C 723.92 512.51, 721.05 513.46, 714.02 515.46 C 706.99 517.45, 702.95 518.80, 693.93 521.44 C 684.92 524.09, 679.49 525.61, 668.95 528.69 C 658.40 531.76, 652.00 533.45, 641.22 536.81 C 630.44 540.17, 624.44 542.00, 615.04 545.49 C 605.64 548.98, 600.99 551.13, 594.22 554.25 C 587.46 557.38, 584.00 558.25, 581.22 561.10 C 578.43 563.94, 578.43 566.11, 580.30 568.48 C 582.17 570.85, 584.65 571.16, 590.56 572.94 C 596.47 574.72, 600.98 575.66, 609.86 577.38 C 618.74 579.09, 624.22 579.64, 634.96 581.53 C 645.70 583.43, 652.48 584.89, 663.56 586.84 C 674.64 588.78, 680.72 589.78, 690.38 591.27 C 700.04 592.75, 704.62 593.50, 711.85 594.25 C 719.07 595.00, 721.83 595.64, 726.49 595.01 C 731.15 594.37, 733.06 593.73, 735.15 591.08 C 737.25 588.42, 737.27 586.26, 736.96 581.73 C 736.65 577.20, 735.70 574.43, 733.62 568.40 C 731.54 562.38, 729.98 558.90, 726.55 551.62 C 723.13 544.35, 720.72 540.51, 716.48 532.03 C 712.24 523.54, 709.88 518.68, 705.37 509.22 C 700.86 499.75, 698.46 494.25, 693.93 484.69 C 689.40 475.13, 686.86 469.99, 682.71 461.43 C 678.56 452.87, 676.56 448.39, 673.18 441.88 C 669.79 435.36, 668.40 432.73, 665.79 428.84 C 663.19 424.95, 661.69 423.38, 660.15 422.43 C 658.61 421.47, 657.54 422.40, 658.08 424.07" style="stroke: black; fill: black;"/></svg>