<svg xmlns="http://www.w3.org/2000/svg" id="Calque_2" data-name="Calque 2" viewBox="0 0 659.48 318.28"><defs><style>.cls-1{fill:#fff;stroke-width:0}</style></defs><g id="Dimensions"><g><path d="M215.7,0c2.7,0,5.58,2.37,8.62,7.1-11.16,39.56-17.98,61.87-20.45,66.94-4.4,11.27-9.92,24.12-16.57,38.54-2.7,6.65-4.06,10.26-4.06,10.82,1.35,1.92,4.73,4,10.14,6.25,0,.57,3.15,1.86,9.47,3.89,0,1.8.96,2.7,2.87,2.7v1.69h2.03c3.04,1.69,4.56,3.27,4.56,4.73-.45.68-.68.9-.68.68.79,0,2.48.96,5.07,2.87h5.92l16.9-4.23c1.35.9,2.48,1.35,3.38,1.35h.85l-.34.17-.17-.34c0-2.14,4.9-4.28,14.71-6.42l1.35.51c0-1.46,3.27-2.59,9.8-3.38.79.34,1.07.51.85.51,0-.45,2.42-1.29,7.27-2.54,1.24-5.41,2.71-8.11,4.4-8.11l2.03.51-.51.85c.34.11-.28.17-1.86.17v-4.23c1.58-2.25,2.37-3.21,2.37-2.87-.45,0-.68-1.12-.68-3.38h1.18c-.34-.79-.51-1.97-.51-3.55,1.35,0,3.04-3.32,5.07-9.97h-.51v-.17c1.35-1.46,2.7-5.18,4.06-11.16.56,0,.85-.96.85-2.87h2.87l-.51-.17c0,.79.17.85.51.17-.34-1.12-.51-1.97-.51-2.54.79-1.58,1.18-3.66,1.18-6.25l1.18.68c0,.11.51-.39,1.52-1.52,0-.11-.34-.17-1.01-.17,0-2.03,2.37-7.72,7.1-17.07,0-3.27.17-5.07.51-5.41.45,0,.68-.9.68-2.7l2.54-1.35c1.01.57,1.18.85.51.85v.68c0-5.52.73-9.18,2.2-10.99l-.51-2.71c2.93-6.76,4.79-10.42,5.58-10.99l-.17-.51c3.6-15.66,7.66-23.5,12.17-23.5,4.28.68,6.42,2.93,6.42,6.76v1.35c-4.85,14.77-8.79,25.19-11.83,31.27l.68,4.4c-2.37,3.27-4.96,9.64-7.78,19.1-12.74,32.12-20.51,52.46-23.33,61.03-.11-.11-.11-.17,0-.17,5.3-1.92,9.35-3.1,12.17-3.55,5.3-1.24,9.64-2.82,13.02-4.73,3.49.45,5.24.62,5.24.51l7.44-2.87,1.69.17c0-1.24,4.73-3.1,14.2-5.58h4.4c1.46-1.58,3.32-2.37,5.58-2.37l1.18.68c11.27-4.96,18.59-7.55,21.98-7.78.79-1.58,3.49-2.37,8.11-2.37,0,1.35.39,2.93,1.18,4.73-.45,4.17-12.4,9.64-35.84,16.4-4.28,1.8-15.04,5.13-32.29,9.97l-1.69,1.69-1.52-.85c-20.74,5.75-31.1,9.47-31.1,11.16-8.34,27.16-13.07,40.74-14.2,40.74,0,.79-2.76,10.2-8.28,28.23-1.92,5.07-4.28,16.17-7.1,33.3,0,1.92-2.93,3.32-8.79,4.23h-1.18c-3.04-1.69-4.56-3.95-4.56-6.76v-2.87l1.69-16.4c-.34-.56-.51-1.41-.51-2.54v-5.41c0-1.01-.79-4.4-2.37-10.14.34-.9.51-1.41.51-1.52-3.27-10.48-6.37-18.37-9.3-23.67-3.83-7.44-7.04-12.17-9.64-14.2,0-1.58-1.41-3.32-4.23-5.24h-.68l-29.58,6.42c-17.36,2.59-26.03,4.62-26.03,6.09-4.06,7.89-9.47,20.17-16.23,36.85-7.89,16-12.79,24-14.71,24-2.14,0-3.21-.68-3.21-2.03,0-.68-.34-1.01-1.01-1.01,2.14-6.2,3.1-9.3,2.87-9.3v-2.2h2.37v-.51c0-1.8.79-3.38,2.37-4.73v1.35h1.01c-.79.45-1.92.68-3.38.68v-2.03c0-1.91.96-2.93,2.87-3.04v.68l-2.2-3.21c2.25-1.46,3.38-2.87,3.38-4.23-.34,0-.51-1.13-.51-3.38h2.37v1.18l-1.35-2.03c.68-1.69,1.46-4.11,2.37-7.27l2.37,1.01h-1.01v1.52h-1.86v-2.2c1.8-2.93,3.04-5.75,3.72-8.45,1.35-.56,1.92-.85,1.69-.85v-5.41c.9,0,1.86-.85,2.87-2.54v.17l-1.18-2.87c1.58,0,2.37.06,2.37.17v.68h.34l-50.88,7.1h-1.01l-2.54-.51c-1.24.68-11.21,1.63-29.92,2.87-.9-.34-1.46-.51-1.69-.51l-4.06.51c-.45,0-1.69-.17-3.72-.51-.11,0-.56.17-1.35.51-19.72,0-36.34-5.46-49.87-16.4-2.59-3.83-3.89-7.1-3.89-9.8v-.51c0-3.61,3.27-7.83,9.8-12.68h2.37v1.86h-.17c-.22,0,.17-1.41,1.18-4.23,1.92-1.58,4.12-2.37,6.59-2.37h.34c0-2.25,3.55-4.28,10.65-6.09,0-.68.73-1.01,2.2-1.01,2.14.45,3.49.68,4.06.68,2.37-2.03,5.47-3.38,9.3-4.06,2.14-2.03,4.56-3.04,7.27-3.04l2.03.51c1.24-.79,2.48-1.18,3.72-1.18h1.01c0-1.8,2.37-2.93,7.1-3.38,0-.56.85-.85,2.54-.85l1.52,1.01c2.26-.45,3.95-1.18,5.07-2.2h3.38c0-.79,1.75-1.18,5.24-1.18l1.01.51c1.69-.68,3.04-1.01,4.06-1.01l3.04.51c1.35,0,3.1-.96,5.24-2.87h2.37c0,1.13-.17,1.69-.51,1.69l1.35-.51,2.37.34c0-.34,2.03-.85,6.09-1.52l3.21.51h2.03c5.18-.68,7.78-1.63,7.78-2.87,1.8,0,5.75.85,11.83,2.54l2.7-1.35h2.7c2.93,0,5.46.96,7.61,2.87h-.34c1.46-1.13,3.27-1.69,5.41-1.69,0,.9.17,1.47.51,1.69l3.72-.51,2.54,1.69h-.34l1.69-1.18h1.86c1.01,1.24,2.82,2.03,5.41,2.37.9,0,2.03-2.42,3.38-7.27,2.59-.9,3.89-1.18,3.89-.85l-1.69-2.37c0-1.46,1.75-3.27,5.24-5.41v-3.38c0-.45.39-2.08,1.18-4.9v-2.7c1.46-.45,2.65-2.82,3.55-7.1l2.87-5.24c-.34-.56-.51-1.86-.51-3.89,1.8,0,2.87-1.97,3.21-5.92,1.12,0,2.14-1.97,3.04-5.92h.85v-3.38l2.87-3.72c-.11-.22-.62-.34-1.52-.34l11.83-37.19h-.68c2.25-6.42,3.89-12.28,4.9-17.58,1.69,0,3.27-.79,4.73-2.37ZM94.5,125.26l-1.01-.68c-26.48,5.86-47.5,12.57-63.05,20.12-9.8,5.98-14.71,10.2-14.71,12.68,5.41,8.23,17.98,12.62,37.7,13.19h12.51c.68,0,1.47-.28,2.37-.85,1.01.56,1.58.85,1.69.85,1.69,0,11.89-1.01,30.6-3.04l1.18.68c21.64-3.15,35.27-5.41,40.91-6.76.68.56,1.07.85,1.18.85,7.44-1.8,11.1-2.65,10.99-2.54l-.51-.68.68-2.37-.68-1.18c1.58-4.62,3.1-6.93,4.56-6.93h.34v.85c0-.68-.17-1.35-.51-2.03,0-5.52,1.97-8.28,5.92-8.28v1.52c-1.58,0-2.37-.85-2.37-2.54,0-1.24,1.58-4.51,4.73-9.8v-.85c0-.22-2.65-1.07-7.94-2.54v1.18l-5.24-2.71h-3.89c-5.41,0-8.45-.45-9.13-1.35l-.51.17h-17.58c-1.69,0-3.83-.17-6.42-.51-2.7.79-9.97,1.97-21.81,3.55ZM179.36,132.02c-.68.57-4.28,9.19-10.82,25.86v-.51c11.38-1.35,17.97-2.82,19.78-4.4l1.69,1.01h1.86c12.06-3.15,18.14-4.73,18.26-4.73v1.35c-10.48-9.35-20.74-15.55-30.77-18.6ZM201,56.63v-1.52h-2.03v1.52h2.03ZM246.81,152.48l-1.86-.34c-1.47,1.01-5.07,2.09-10.82,3.21l-3.04,1.52c-1.01-.56-1.58-.85-1.69-.85l-1.18.51v.68c5.52,6.88,8.28,10.71,8.28,11.5,2.48.11,5.07,3.89,7.78,11.33,0,2.59,1.13,4.28,3.38,5.07,3.04,10.82,4.34,16.23,3.89,16.23,2.59-5.18,4.23-7.78,4.9-7.78,0,.79-.23.11-.68-2.03,0-1.69,2.59-9.47,7.78-23.33,0-1.8,1.18-3.89,3.55-6.25v-.34l-1.69-2.87h1.86c.22.34.34.17.34-.51s.9-2.08,2.7-4.23c-.23-.45-.34-1.63-.34-3.55.79,0,1.69-2.2,2.7-6.59.56,0,.85.06.85.17v.51l-1.52-.34c-9.47,2.37-15.38,4.51-17.75,6.42-2.93,1.24-5.41,1.86-7.44,1.86ZM230.24,166.17c-.11-1.01-.68-1.52-1.69-1.52v1.52h1.69ZM261.34,194.4l.51-1.18-1.18-.68-.51,1.18,1.18.68ZM269.12,167.36v-1.52h-1.52v1.52h1.52Z" class="cls-1"/><path d="M391.51,95.17c1.92,0,4.17.9,6.76,2.7,0,1.58-4.06,8.79-12.17,21.64-1.92,3.83-3.27,10.14-4.06,18.93.9,2.03,1.8,3.16,2.7,3.38,4.51,0,13.52-5.63,27.05-16.9,6.99-6.87,15.1-15.89,24.34-27.05,3.15-.9,5.86-1.35,8.11-1.35h2.03c.68,0,1.58,1.13,2.7,3.38,0,.9-2.7,4.51-8.11,10.82-1.8,2.59-4.06,8-6.76,16.23v6.09c0,.57,1.12,1.69,3.38,3.38,6.65,0,20.06-10.37,40.23-31.1,3.61-4.96,6.99-8.11,10.14-9.47h.68c.9.11,1.35.57,1.35,1.35-3.38,10.48-12.51,23.78-27.39,39.89-8.57,7.67-16.9,11.5-25.02,11.5h-.68c-8,0-14.09-5.63-18.26-16.9-14.2,13.98-23.44,20.96-27.72,20.96-3.16.9-5.86,1.35-8.11,1.35-7.44,0-12.17-4.96-14.2-14.88v-.68c0-13.41,6.09-27.39,18.26-41.92.9,0,2.48-.45,4.73-1.35Z" class="cls-1"/><path d="M515.59,85.37c9.13,2.14,13.69,5.47,13.69,9.97,1.35,0,2.31,2.65,2.87,7.95,0,11.5-2.37,28.74-7.1,51.73,3.94-2.48,7.27-5.13,9.97-7.95,2.7-2.82,7.49-7.04,14.37-12.68,5.75-5.75,9.94-9.8,12.59-12.17,2.65-2.37,6.56-8,11.75-16.9,5.97-4.84,9.64-6.03,10.99-3.55,0,.57.22.85.68.85,0,3.83-3.35,10-10.06,18.51-6.71,8.51-14.62,17.61-23.75,27.3-14.99,12.06-25.81,21.86-32.46,29.41-5.97,24.46-10.99,39.22-15.04,44.29,0,.79-2.14,6.03-6.42,15.72,0,1.01-2.14,4.62-6.42,10.82-4.51,10.14-10.76,21.75-18.76,34.82-8,13.07-17.04,22.54-27.13,28.4-10.08,5.86-17.97,7.69-23.67,5.49-5.69-2.2-8.73-7.67-9.13-16.4-.39-8.73,1.83-20.6,6.68-35.58,4.85-14.99,16.68-32.96,35.5-53.93,21.98-22.31,40.12-36.68,54.43-43.11l8.62-41.42v-2.2h-1.52c-9.13,12.4-19.38,18.6-30.77,18.6-10.93-2.03-16.4-7.04-16.4-15.05v-2.87c0-13.63,13.35-26.54,40.06-38.71,3.49-.45,5.63-.9,6.42-1.35ZM431.57,306.48c8.9-2.14,20.34-13.02,34.32-32.63,12.28-18.71,20.29-34.49,24-47.33,3.27-4.06,4.9-8.11,4.9-12.17,1.24-.56,4.9-11.38,10.99-32.46l-23.16,17.58c-8.68,7.33-19.16,19.33-31.44,36.01-11.94,14.09-20.43,29.98-25.44,47.67-5.01,17.69-3.07,25.47,5.83,23.33ZM481.95,124.08v5.75c.45,1.35,1.86,2.03,4.23,2.03h5.07c10.37-6.09,18.71-14.42,25.02-25.02l-.68-6.42.68-5.07h-2.87c-9.02,1.58-18.54,8.28-28.57,20.12-1.92,3.61-2.87,6.48-2.87,8.62Z" class="cls-1"/><path d="M594.7,92.3l2.2-.51c13.63-1.12,21.13.45,22.48,4.73.68-.22,2.65,3.1,5.92,9.97.68,2.14.45,6.65-.68,13.52l-.17-.51h-.17c2.71-.56,12.56-7.38,29.58-20.45,2.14-1.35,3.94-2.2,5.41-2.54,1.69,5.41-7.33,16.06-27.05,31.95-5.64,3.61-10.43,5.86-14.37,6.76-8.23,8.45-14.54,14.14-18.93,17.07-1.24.34-2.71.9-4.4,1.69-9.8,2.37-18.2-.62-25.19-8.96-1.46-2.48-2.87-5.24-4.23-8.28-4.51-14.2-1.35-25.53,9.47-33.98,3.38-4.17,8.85-7.16,16.4-8.96-.11-.34,1.12-.85,3.72-1.52ZM575.94,130.67l.51,1.52c2.14,6.99,4.62,10.76,7.44,11.33,2.03.57,4.56.45,7.61-.34,6.2-3.72,9.52-6.25,9.97-7.61v.17c-10.59-4.84-17.07-10.87-19.44-18.09-.34.11-.68-.45-1.01-1.69-.11-2.48-.34-4.4-.68-5.75h-.17c-4.96,6.99-6.37,13.81-4.23,20.45ZM594.03,114.78c3.72,8.34,8.68,11.72,14.88,10.14l1.69-.34c3.49-4.73,5.13-9.35,4.9-13.86-3.04-7.66-6.65-10.99-10.82-9.97-.23-.68-.9-.85-2.03-.51-8.23,2.03-11.1,6.88-8.62,14.54Z" class="cls-1"/></g></g></svg>